<svg xmlns="http://www.w3.org/2000/svg" viewBox="0 0 100 100">
  <circle cx="50" cy="50" r="50" fill="#fff"/>
  <path fill="#0038a8" d="M50 0c-8.438 0-16.39 2.063-23.36 5.704l3.61 2.242V4.824c1.54-.25 3.128-.385 4.742-.385 1.613 0 3.193.132 4.734.384v3.122l3.664-2.274c2.338.703 4.544 1.688 6.587 2.92l-10.25 6.383v4.88l13.9-8.65c1.56 1.313 2.978 2.784 4.226 4.394L39.726 26.882v4.878l20.424-12.7c.983 1.744 1.787 3.596 2.383 5.54L39.726 38.79v4.88l23.752-14.776c.18 1.283.282 2.592.282 3.923 0 1.025-.057 2.033-.164 3.03L39.726 50.7v3.99h1.423L62.39 41.48c-.81 2.497-1.96 4.842-3.398 6.984h41.003C99.53 21.62 77.324 0 50 0M20.943 9.18c-1.207.852-2.368 1.76-3.493 2.713l12.8 7.96v-4.877L20.942 9.18m-7.938 6.967c-.947 1.027-1.854 2.095-2.71 3.2L30.247 31.76v-4.878L13.005 16.147M8.442 21.89C3.108 29.734-.004 39.17-.004 49.327c0 1.814-.012 3.573.18 5.336l16.493.028c-4.19-3.42-7.383-7.984-9.08-13.21l21.237 13.21h1.422V50.7L6.386 35.848c-.107-.997-.164-2.005-.164-3.03 0-1.33.094-2.64.274-3.923L30.25 43.67v-4.878l-22.8-14.19c.285-.926.618-1.83.993-2.713"/>
  <path fill="#006c35" d="M72.14 53.428c-4.534.006-9.812.022-16.1.047l-10.063 5.28-45.276.07c.49 2.98 1.148 5.512 2.17 8.294l43.108.05 10.062-4.693h9.36l33.162-.007c.593-2.054 1.34-5.9 1.34-8.995-7.183 0-14.152-.06-27.76-.046M56.03 67.48l-10.055 5.37c0 .002-40.647-.043-40.647-.043 1.107 2.225 1.75 3.11 2.487 4.318.69 1.13 1.406 2.33 2.89 4.043h35.27l10.063-4.695c0 .002 9.36.002 9.36.002l27.224-.008c1.846-2.93 3.476-5.833 4.4-8.995l-40.992.008m0 13.996l-10.055 5.38H16.05c3.75 3.95 8.538 6.572 12.824 8.517h17.104l10.062-4.695c0 .002 23.204.002 23.204.002 3.906-2.617 7.346-5.76 9.812-9.212l-33.024.01m0 14.203l-7.976 4.268c8.825.398 16.543-1.555 22.41-4.267H56.033"/>
</svg>
