<svg xmlns="http://www.w3.org/2000/svg" viewBox="0 0 100 100">
  <path fill="#3771c8" d="M50 .01C22.378.01 0 22.397 0 50.013c0 25.12 18.534 45.912 42.674 49.464.5.107.967.173 1.38.168 2.465-.025 3.6-2.012 3.6-3.7V71.464l-.023-.07-21.245-21.26 23.903-23.907 23.907 23.907-21.22 21.22.1-.084v24.488c0 2.67 1.592 4.303 3.86 3.772C81.105 96.007 100 75.136 100 50c0-27.612-22.398-50-50.003-50M60.68 90.726v-.033l-.02-15.743-.136-.056 24.57-24.565-35.052-35.042-35.052 35.05 25.067 25.075-.015 15.265C21.76 86.038 8.227 69.473 8.227 49.748c0-23.328 18.91-42.243 42.244-42.243 23.336 0 42.242 18.916 42.242 42.242 0 20.547-14.002 36.51-32.036 40.982"/>
</svg>
