<svg xmlns="http://www.w3.org/2000/svg" xmlns:xlink="http://www.w3.org/1999/xlink" viewBox="0 0 100 100">
  <circle cx="50" cy="50" r="50" fill="#ffc800"/>
  <circle cx="50" cy="50" r="48" fill="#fff"/>
  <g fill="#ffc800">
    <circle cx="50" cy="50" r="23"/>
    <g transform="matrix(0.46 0 0 0.46 50 50)">
      <g id="z">
        <g id="y">
          <g id="x">
            <path d="M0 0l55 70.71L70.71 70.71L70.71 55z"/>
            <path d="M0 0l40 70.71L50 70.71z"/>
            <path d="M0 0l70.71 40L70.71 50z"/>
          </g>
          <use transform="rotate(45)" xlink:href="#x"/>
        </g>
        <use transform="rotate(90)" xlink:href="#y"/>
      </g>
      <use transform="rotate(180)" xlink:href="#z"/>
    </g>
  </g>
  <path fill="#f00" d="M35,38c5.726-5.34 11.28-3.692 13.37-2.995 2.09.696 11.706 5.007 13.332 5.007 1.625 0 2.09-.233 2.554-1.24-.078 1.936.123 3.898-2.51 4.987-1.65.683-7.473-1.97-10.398-3.178l-.815 6.914c6.786 3.827 12.504 4.41 16.52-1.375.54 4.024-1.34 6.02-3.22 6.692 1.13 1.737 3.518.808 4.912-.496-1.426 3.884-3.87 6.58-9.52 2.786-.852 1.16-2.322 2.554-2.322 2.554 3.236-.61 3.893 2.313 6.77 1.958-2.786 3.328-6.693 2.222-8.937.83-3.558 5.17-10.388 7.67-14.465 2.712-4.032-4.905-6.576-7.766-9.605-7.048 2.554-3.018 5.77-5.11 10.735 1.73 4.89 6.734 8.798 2.003 13.623-4.024-5.335.297-14.87-11.56-23.43-4.67 1.862-8.238 9.957-6.416 15.617-3.248l.837-6.615c-7.43-2.94-11.345-1.593-13.048-1.283z"/>
</svg>
