<svg xmlns="http://www.w3.org/2000/svg" xmlns:xlink="http://www.w3.org/1999/xlink" viewBox="0 0 100 100">
  <circle cx="50" cy="50" r="50" fill="#0b3d91"/>
  <circle cx="50" cy="50" r="48" fill="#fff"/>
  <circle cx="50" cy="50" r="46" fill="#fd1813"/>
  <g id="half" fill="#ff0">
    <path d="M61.757,50c13.08,6.377 17.146,22.627 17.146,28.64h-4.9 c0-11.042,-4.154-20.18-13.715-28.64z"/>
    <path d="M59.308,50c4.906,4.172 13.84,12.935 13.717,28.64h-4.9 c0-6.99,-2.492-19.317-10.287-28.64z"/>
    <path d="M56.858,50c3.397,4.042 10.412,14.164 10.288,28.64h-4.9 c0.255,-6.38-1.077-20.92-6.857-28.64z"/>
    <path d="M54.41,50c3.01,3.432 7.112,14.652 6.857,28.64h-4.9 c0-7.73,0.09-21.53-3.43-28.64z"/>
    <path d="M51.96,50c2.896,6.255 3.554,18.086 3.43,28.64h-4.9 v-28.64z"/>
  </g>
  <use transform="matrix(-1 0 0 -1 100 100)" xlink:href="#half"/>
  <use transform="matrix(-1 0 0 1 100 0)" xlink:href="#half"/>
  <use transform="matrix(1 0 0 -1 0 100)" xlink:href="#half"/>
</svg>
