<svg xmlns="http://www.w3.org/2000/svg" viewBox="0 0 100 100">
  <circle cx="50" cy="50" r="50" fill="#800000"/>
  <circle cx="50" cy="50" r="46" fill="#fff"/>
  <path fill="#800000" d="M21.63 68.52c-4.77-1-7.86-5.66-8.14-10.34-.46-4.02-.05-8.48 2.97-11.5 2.22-1.83 4.6-5.83.94-7.6-2.26-1.22-7.25-1.74-6.03-5.36 2.14-2.64 6.4-1.2 8.84.4 2.84 1.9 5.9 4 7.4 7.16.53 3.3-3.18 5.04-5.07 7.1-3.74 3.03-4.9 9.12-1.95 13.04 2.57 2.56 6.6 1.66 9.8 1.26 9.14-1.86 15.85-8.8 22.85-14.4 6.1-5.05 12.13-11.34 20.4-12.48 9-1.04 18.3 7 17.6 16.24-.1 3.47-.08 7.8-3.15 10.1-3.4 1.72-4.42-3.24-3.16-5.53 1.07-4 .82-8.57-1.97-11.84-2.6-3.46-7.5-3.6-11.4-2.8-3.8 1.23-6.88 4.07-9.73 6.8-2.56 3.37 2.7 5.9 3.56 8.96 1.27 2 1.07 6.57-2.18 6.12-3-1.42-3.1-5.62-5.93-7.36-2.53-2.5-5.4.15-7.4 1.9-6 5.13-13.1 9.53-21.08 10.46-2.4.18-4.83.2-7.17-.32z"/>
</svg>
