<svg xmlns="http://www.w3.org/2000/svg" viewBox="0 0 100 100">
  <defs>
    <linearGradient id="grad" gradientTransform="rotate(90)">
      <stop offset="0" stop-color="#e7f2f0" />
      <stop offset="1" stop-color="#25a9a2" />
    </linearGradient>
  </defs>
  <circle cx="50" cy="50" r="50" fill="url(#grad)"/>
  <path fill="#fff" d="M 80.308201,10.231532 C 79.152977,11.570664 77.937833,12.817431 76.6875,13.859375 64.517101,24.271042 45.455342,26.763318 19.941406,21.191406 16.497924,20.442593 12.957272,20.263537 9.5530324,20.585077 c -0.9159387,1.148107 -1.6352077,2.265429 -2.3695711,3.575841 3.7997657,-0.733223 7.8740767,-0.773394 12.0255227,0.110566 26.685776,5.864385 46.627397,3.225207 59.53125,-7.917968 1.468501,-1.223871 2.88656,-2.645105 4.132976,-4.116125 -0.814886,-0.695333 -1.707149,-1.364298 -2.565009,-2.005859 z m 15.60837,19.969363 c -3.641716,4.919112 -8.045968,9.235941 -12.924383,12.556917 l 0.05524,-0.02957 C 69.118948,52.259891 52.49285,53.167384 36.216797,45.542969 22.434226,38.945131 10.364571,38.437999 0.39453125,43.714844 c -0.17187849,1.181768 -0.32334659,2.958008 -0.3515625,4.125 L 2.1992188,46.570312 c 8.9454092,-4.839106 19.9412772,-4.252555 32.6992192,1.90625 17.010153,8.064099 35.247401,7.010122 50.057196,-2.961214 4.616922,-3.232152 8.771823,-7.201965 12.33789,-11.746094 -0.413306,-1.20658 -0.872626,-2.396903 -1.376953,-3.568359 z"/>
</svg>
